<?xml version="1.0" standalone="no"?>
<!DOCTYPE svg PUBLIC "-//W3C//DTD SVG 20010904//EN"
 "http://www.w3.org/TR/2001/REC-SVG-20010904/DTD/svg10.dtd">
<svg version="1.0" xmlns="http://www.w3.org/2000/svg"
 width="3508.000000pt" height="2481.000000pt" viewBox="0 0 3508.000000 2481.000000"
 preserveAspectRatio="xMidYMid meet">

<g transform="translate(0.000000,2481.000000) scale(0.100000,-0.100000)"
fill="#000000" stroke="none">
<path d="M17715 19874 c-599 -94 -1034 -524 -1253 -1239 -27 -86 -105 -394
-114 -448 -2 -14 -34 -30 -118 -61 -777 -289 -1376 -799 -1799 -1533 -28 -49
-49 -74 -64 -77 -237 -49 -372 -94 -512 -173 -323 -183 -468 -408 -452 -702
12 -231 102 -421 324 -689 l32 -39 -68 -27 c-95 -37 -210 -115 -274 -187 -99
-109 -156 -245 -177 -424 -34 -287 65 -569 287 -816 53 -59 170 -151 256 -200
40 -23 74 -43 76 -45 2 -2 -22 -32 -54 -66 -178 -191 -285 -447 -285 -678 0
-315 169 -567 481 -715 85 -39 250 -95 285 -95 26 0 24 -20 -6 -81 -97 -190
-93 -423 8 -625 80 -159 221 -309 409 -434 291 -195 644 -305 1059 -330 l160
-9 180 -84 c361 -169 794 -328 1109 -406 878 -219 1736 -181 2525 110 163 61
478 214 615 300 728 455 1272 1217 1438 2014 46 218 61 365 61 580 1 417 -84
757 -283 1142 -131 252 -286 457 -505 671 -134 130 -137 134 -170 220 -144
373 -399 676 -756 896 -163 101 -425 225 -664 315 -362 136 -611 341 -749 616
-48 97 -79 201 -120 405 -53 263 -51 239 -19 229 15 -5 88 -20 162 -34 347
-66 738 -201 1092 -377 l180 -89 -6 -42 c-18 -114 -18 -123 -1 -140 11 -11 33
-17 63 -17 158 0 1371 31 1389 35 43 10 40 48 -10 133 -169 290 -670 1104
-698 1135 -55 62 -65 57 -153 -68 -13 -20 -15 -19 -92 23 -421 232 -921 418
-1411 526 -228 50 -585 106 -677 106 -32 0 -34 2 -39 48 -4 26 -12 153 -18
282 -17 354 -1 666 51 970 11 63 16 118 12 122 -11 11 -181 54 -273 69 -111
18 -329 20 -434 3z m207 -359 c202 -38 193 -34 192 -86 0 -24 -8 -141 -18
-259 -31 -361 -17 -855 35 -1260 50 -392 144 -833 264 -1235 75 -251 128 -350
254 -475 101 -100 230 -179 536 -331 307 -151 487 -251 610 -338 93 -65 221
-184 269 -250 45 -61 88 -145 77 -149 -4 -1 -59 18 -122 44 -63 26 -190 72
-284 103 l-170 56 1 45 c0 25 4 81 8 125 8 74 7 81 -13 99 -25 23 42 42 -792
-233 -411 -136 -611 -207 -624 -221 -15 -16 -16 -25 -7 -44 9 -20 325 -308
925 -843 151 -135 172 -147 217 -123 25 13 38 58 46 158 4 45 9 82 13 82 13
-1 192 -60 301 -100 436 -160 781 -419 965 -723 138 -228 196 -467 196 -817 0
-256 -27 -445 -98 -665 -70 -218 -259 -565 -307 -565 -12 0 -57 7 -101 15
-368 66 -862 26 -1360 -111 -414 -114 -962 -323 -1640 -624 -636 -282 -888
-350 -1305 -350 -408 0 -725 88 -1017 282 -286 190 -445 447 -447 723 0 117
20 209 68 308 l32 66 -46 7 c-140 19 -251 65 -357 148 -117 91 -209 230 -249
376 -26 91 -26 337 -1 430 41 153 158 339 276 441 l50 43 -59 22 c-130 47
-255 148 -323 262 -52 85 -103 224 -127 342 -27 129 -23 303 9 415 62 218 189
394 355 492 l63 37 -69 91 c-76 100 -159 258 -183 350 -9 33 -18 101 -21 150
-8 116 12 209 67 323 34 70 58 102 133 177 99 100 178 152 328 217 285 123
597 150 1218 107 202 -14 432 -23 580 -23 276 -1 300 4 341 71 20 31 21 44 16
126 -3 51 -17 144 -31 207 -49 225 -88 538 -106 840 -49 838 112 1430 485
1777 267 249 578 337 947 268z m465 -1207 c-3 -8 -6 -5 -6 6 -1 11 2 17 5 13
3 -3 4 -12 1 -19z m20 -170 c-3 -8 -6 -5 -6 6 -1 11 2 17 5 13 3 -3 4 -12 1
-19z m10 -90 c-3 -8 -6 -5 -6 6 -1 11 2 17 5 13 3 -3 4 -12 1 -19z m10 -80
c-3 -8 -6 -5 -6 6 -1 11 2 17 5 13 3 -3 4 -12 1 -19z m10 -70 c-3 -8 -6 -5 -6
6 -1 11 2 17 5 13 3 -3 4 -12 1 -19z m-2140 -321 c-2 -23 -3 -1 -3 48 0 50 1
68 3 42 2 -26 2 -67 0 -90z m2170 111 c-3 -8 -6 -5 -6 6 -1 11 2 17 5 13 3 -3
4 -12 1 -19z m-2038 -918 c42 -165 37 -240 -20 -305 -41 -46 -106 -65 -225
-65 -94 0 -307 25 -332 39 -14 8 43 62 193 181 112 89 347 242 357 232 4 -4
16 -41 27 -82z m3852 -5419 c-26 -36 -151 -154 -249 -234 -211 -172 -502 -329
-806 -436 -506 -178 -1120 -215 -1640 -98 -55 12 -101 27 -103 32 -6 18 779
331 1115 446 662 225 1087 310 1575 317 l128 2 -20 -29z"/>
<path d="M20280 8270 l0 -630 749 0 749 0 60 -74 c93 -116 107 -152 107 -274
0 -56 3 -102 7 -102 12 0 64 108 82 169 20 68 21 163 1 227 -8 27 -15 50 -15
51 0 1 75 3 168 5 157 3 170 5 225 30 66 31 155 115 186 176 42 82 51 145 51
349 0 119 4 201 11 216 13 29 48 47 89 47 20 0 30 5 30 15 0 13 -26 15 -174
15 l-175 0 -3 -282 c-5 -324 -10 -350 -84 -424 -56 -57 -116 -74 -254 -74
l-107 0 -26 38 c-15 20 -204 214 -420 430 l-393 393 -118 -121 c-82 -85 -115
-125 -108 -132 8 -8 20 -3 42 16 38 32 68 33 106 4 39 -28 624 -611 624 -621
0 -4 -269 -6 -597 -5 l-598 3 0 542 c0 533 0 542 21 570 13 18 35 31 62 37 23
6 42 16 42 23 0 10 -37 13 -170 13 l-170 0 0 -630z"/>
<path d="M22910 8270 l0 -630 105 0 105 0 0 575 c0 625 -1 618 55 643 14 7 37
12 50 12 16 0 25 6 25 15 0 13 -26 15 -170 15 l-170 0 0 -630z"/>
<path d="M19865 8871 c-60 -25 -81 -104 -43 -161 51 -75 157 -60 187 26 12 35
12 46 1 74 -23 55 -90 83 -145 61z"/>
<path d="M22493 8870 c-37 -15 -65 -69 -59 -114 10 -81 97 -120 166 -74 109
74 15 237 -107 188z"/>
<path d="M27200 8817 c-78 -39 -51 -157 35 -157 80 0 115 93 54 144 -34 29
-52 32 -89 13z"/>
<path d="M8290 8145 l0 -505 85 0 85 0 0 454 c0 290 4 464 10 483 11 30 44 52
78 54 14 0 13 2 -3 9 -11 5 -73 9 -137 9 l-118 1 0 -505z"/>
<path d="M13018 8258 c-3 -374 -4 -395 -24 -438 -23 -50 -81 -106 -120 -116
-13 -4 -52 -4 -84 -2 -49 3 -70 11 -112 41 -49 34 -53 35 -56 16 -5 -27 13
-46 68 -74 130 -66 312 -52 401 32 l27 24 53 -40 c70 -53 125 -65 271 -59 100
4 122 8 171 32 31 15 72 45 91 68 67 77 69 93 75 488 3 195 10 361 14 367 4 7
26 18 47 24 22 7 40 16 40 21 0 4 -61 8 -135 8 l-135 0 0 -363 c0 -399 -6
-451 -58 -516 -44 -55 -86 -73 -163 -69 -85 4 -136 36 -170 105 -24 47 -24 52
-27 411 l-3 362 25 25 c14 14 37 25 51 25 14 0 25 5 25 10 0 6 -51 10 -134 10
l-135 0 -3 -392z"/>
<path d="M15620 8145 l0 -505 85 0 85 0 0 454 c0 290 4 464 10 483 11 30 44
52 78 54 14 0 13 2 -3 9 -11 5 -73 9 -137 9 l-118 1 0 -505z"/>
<path d="M18250 8272 c0 -404 -4 -440 -50 -499 -42 -54 -87 -73 -175 -73 -138
0 -177 46 -194 230 -11 120 -20 155 -55 214 -145 247 -592 228 -724 -30 -24
-47 -42 -137 -42 -208 0 -76 -18 -126 -60 -168 l-38 -38 -131 0 -132 0 3 284
c3 263 4 285 22 305 12 13 31 21 53 21 18 0 33 5 33 10 0 17 -452 12 -534 -5
-145 -31 -247 -100 -296 -200 -18 -39 -24 -66 -24 -125 0 -95 28 -162 93 -223
87 -81 184 -114 365 -124 l118 -6 -4 -76 c-3 -45 -13 -94 -25 -121 -20 -46
-73 -108 -108 -128 -35 -19 -10 -22 46 -6 82 25 141 58 183 104 47 52 65 93
73 170 l6 60 124 0 c150 0 204 12 248 55 l32 33 34 -47 c77 -103 182 -146 348
-139 140 6 204 30 282 107 31 31 59 63 61 71 4 11 12 7 32 -17 43 -51 111 -66
265 -61 137 5 189 20 244 72 15 14 30 26 32 26 2 0 17 -12 32 -26 66 -61 95
-69 258 -69 144 0 152 1 207 28 32 16 73 46 92 69 67 77 69 93 75 488 3 195
10 361 14 367 4 7 26 18 47 24 22 7 40 16 40 21 0 4 -61 8 -135 8 l-135 0 0
-363 c0 -399 -6 -451 -58 -516 -45 -56 -86 -73 -169 -69 -62 3 -77 7 -110 34
-21 16 -49 52 -63 80 l-25 49 0 356 c0 336 1 358 19 378 10 11 34 23 52 27 73
14 27 24 -106 24 l-140 0 0 -378z m-1807 -8 l37 -7 0 -283 0 -284 -90 0 c-206
0 -321 105 -322 294 -1 149 76 248 217 279 31 7 116 7 158 1z m1060 -18 c53
-22 114 -100 137 -174 25 -79 27 -234 5 -308 -54 -182 -274 -223 -383 -71 -53
73 -73 146 -74 256 0 148 45 246 134 290 50 25 132 28 181 7z"/>
<path d="M9850 8617 c-78 -39 -51 -157 35 -157 79 0 112 85 56 141 -32 32 -53
35 -91 16z"/>
<path d="M10070 8617 c-14 -7 -31 -25 -38 -41 -40 -82 68 -156 133 -91 42 41
31 105 -22 133 -27 15 -42 15 -73 -1z"/>
<path d="M10690 8602 c-38 -39 -40 -83 -5 -117 40 -41 105 -33 131 17 28 55
-1 111 -64 124 -26 5 -36 1 -62 -24z"/>
<path d="M10920 8617 c-14 -7 -31 -25 -38 -41 -40 -82 68 -156 133 -91 42 41
31 105 -22 133 -27 15 -42 15 -73 -1z"/>
<path d="M23970 8602 c-38 -39 -40 -83 -5 -117 40 -41 105 -33 131 17 28 55
-1 111 -64 124 -26 5 -36 1 -62 -24z"/>
<path d="M24205 8618 c-76 -45 -49 -159 37 -158 105 1 116 147 12 165 -16 3
-38 0 -49 -7z"/>
<path d="M27090 8617 c-78 -39 -51 -157 35 -157 79 0 112 85 56 141 -32 32
-53 35 -91 16z"/>
<path d="M27310 8617 c-14 -7 -31 -25 -38 -41 -40 -82 68 -156 133 -91 42 41
31 105 -22 133 -27 15 -42 15 -73 -1z"/>
<path d="M25209 8593 c-38 -19 -102 -74 -219 -190 l-165 -162 390 -1 c434 0
441 -1 498 -70 54 -64 60 -91 65 -287 l4 -183 -646 0 -646 0 0 264 c0 160 4
275 11 294 10 28 34 44 84 55 11 3 -91 5 -226 6 -213 1 -256 -2 -322 -18 -193
-50 -292 -157 -291 -316 1 -142 91 -257 252 -318 57 -22 57 -22 1005 -25 l948
-3 -3 203 c-3 200 -3 204 -32 266 -37 79 -114 152 -191 181 -52 20 -76 21
-388 21 l-332 0 95 96 c142 143 200 163 293 104 54 -34 57 -35 57 -17 0 20
-81 94 -122 112 -49 20 -55 19 -119 -12z m-911 -339 l22 -6 0 -274 0 -274
-120 0 c-101 0 -127 3 -160 20 -104 53 -160 222 -120 358 23 75 100 145 190
173 30 9 156 11 188 3z"/>
<path d="M12550 8540 c0 -5 13 -10 28 -10 57 0 60 -13 64 -260 3 -210 5 -228
26 -275 41 -89 125 -155 242 -190 21 -7 17 -1 -20 36 -88 86 -100 140 -100
477 l0 232 -120 0 c-73 0 -120 -4 -120 -10z"/>
<path d="M19800 8036 c0 -263 -4 -487 -10 -517 -16 -87 -67 -177 -127 -224
-28 -22 -52 -43 -52 -47 -2 -15 39 -8 118 21 129 47 211 115 255 210 20 44 21
66 26 486 3 242 10 448 14 458 11 23 57 47 91 47 16 0 25 6 25 15 0 13 -26 15
-170 15 l-170 0 0 -464z"/>
<path d="M8758 8330 c-104 -18 -136 -53 -145 -158 -5 -60 -3 -72 9 -72 10 0
17 13 21 35 13 83 78 127 186 127 76 0 114 -12 154 -50 50 -47 70 -99 75 -191
8 -147 -35 -259 -117 -301 -35 -17 -59 -20 -191 -20 l-150 0 0 -31 0 -31 178
4 c202 6 249 17 331 79 l52 39 26 -30 c14 -17 46 -43 72 -58 l46 -27 999 -3
c1111 -3 1063 -5 1144 64 l43 37 27 -26 c45 -41 93 -60 169 -65 64 -4 79 -1
128 23 31 15 65 40 77 56 l21 29 19 -31 c12 -19 40 -40 76 -57 152 -70 326 -5
396 147 18 40 21 72 26 254 5 192 7 210 24 223 11 8 32 14 48 14 15 0 28 5 28
10 0 6 -52 10 -135 10 l-135 0 0 -261 c0 -223 -2 -266 -17 -296 -21 -46 -67
-73 -122 -73 -37 0 -49 6 -82 39 l-39 39 0 235 c0 262 1 267 66 267 19 0 34 5
34 10 0 6 -52 10 -135 10 l-135 0 0 -242 c0 -217 -2 -247 -19 -285 -11 -23
-32 -50 -47 -60 -36 -23 -101 -22 -137 2 -53 34 -57 55 -57 290 0 202 1 216
20 235 11 11 33 20 50 20 17 0 30 5 30 10 0 6 -52 10 -135 10 l-135 0 0 -192
c0 -206 -7 -251 -47 -310 -45 -66 -86 -78 -267 -78 l-157 0 3 281 3 281 24 19
c13 10 36 19 52 19 16 0 29 5 29 10 0 6 -53 10 -140 10 l-140 0 0 -310 0 -310
-200 0 -200 0 0 278 c0 314 1 317 71 328 21 4 39 11 39 16 0 7 -91 8 -252 5
-194 -3 -267 -8 -313 -21 -134 -37 -221 -100 -266 -192 -18 -39 -23 -65 -23
-124 0 -115 47 -201 144 -262 l45 -29 -222 3 -221 3 -39 31 c-62 49 -83 105
-92 237 -7 89 -14 126 -33 169 -69 150 -237 222 -440 188z m1419 -77 c10 -4
13 -59 13 -279 l0 -274 -102 0 c-119 0 -168 17 -231 78 -67 66 -96 200 -65
304 14 46 77 122 122 145 67 36 202 49 263 26z"/>
<path d="M14589 8331 c-59 -11 -105 -35 -124 -65 -9 -13 -19 -56 -22 -95 -5
-59 -3 -71 9 -71 10 0 17 13 21 34 13 83 79 128 188 128 133 1 209 -68 231
-210 21 -131 -16 -252 -95 -316 l-39 -31 -164 -3 -164 -3 0 -31 0 -30 183 4
c212 5 262 19 345 93 184 165 124 489 -106 575 -63 24 -191 34 -263 21z"/>
<path d="M15228 7923 l-3 -408 -25 -49 c-23 -48 -93 -126 -111 -126 -5 0 -9
-5 -9 -10 0 -26 164 39 219 87 23 19 54 58 69 87 l27 51 5 358 5 359 24 19
c13 10 34 19 47 19 13 0 24 5 24 10 0 6 -51 10 -134 10 l-135 0 -3 -407z"/>
<path d="M26108 7923 c-3 -401 -3 -409 -26 -458 -13 -27 -46 -72 -75 -99 -47
-44 -49 -48 -24 -42 163 38 263 127 288 258 l12 58 171 0 c199 0 250 11 315
66 l42 37 27 -26 c45 -41 93 -60 169 -65 64 -4 79 -1 128 23 31 15 65 40 77
56 l21 29 19 -31 c29 -47 116 -83 203 -83 119 0 210 57 262 162 27 56 28 62
33 265 5 192 7 210 24 223 11 8 32 14 48 14 15 0 28 5 28 10 0 6 -52 10 -135
10 l-135 0 0 -261 c0 -223 -2 -266 -17 -296 -21 -46 -67 -73 -122 -73 -37 0
-49 6 -82 39 l-39 39 0 235 c0 262 1 267 66 267 19 0 34 5 34 10 0 6 -52 10
-135 10 l-135 0 0 -242 c0 -217 -2 -247 -19 -285 -11 -23 -32 -50 -47 -60 -36
-23 -101 -22 -137 2 -53 34 -57 55 -57 290 0 202 1 216 20 235 11 11 33 20 50
20 17 0 30 5 30 10 0 6 -52 10 -135 10 l-135 0 0 -192 c0 -206 -7 -251 -47
-310 -44 -64 -87 -78 -251 -78 l-142 0 0 280 0 281 25 24 c13 14 36 25 50 25
14 0 25 5 25 10 0 6 -52 10 -135 10 l-134 0 -3 -407z"/>
<path d="M7662 8309 c-104 -20 -201 -85 -249 -166 -53 -92 -56 -110 -62 -398
-6 -256 -7 -272 -29 -317 -25 -50 -61 -93 -101 -121 -39 -26 -20 -29 46 -6 78
26 146 74 187 132 28 39 39 66 62 146 3 8 10 10 22 6 140 -61 324 -61 441 0
60 31 127 102 157 168 27 57 29 71 29 177 0 103 -3 121 -26 171 -36 75 -86
130 -156 166 -93 49 -208 64 -321 42z m181 -63 c52 -21 111 -96 135 -171 27
-80 30 -234 7 -311 -41 -137 -186 -204 -306 -141 -53 28 -110 107 -134 188
-24 78 -18 245 11 309 24 53 75 107 119 126 39 17 127 18 168 0z"/>
<path d="M21215 7461 c-60 -25 -81 -104 -43 -161 47 -70 148 -62 185 15 42 89
-50 183 -142 146z"/>
<path d="M22947 7455 c-123 -43 -157 -189 -62 -263 l28 -22 -62 0 c-54 0 -61
-2 -61 -20 0 -19 7 -20 205 -20 194 0 205 1 205 19 0 17 -10 19 -100 23 -97 4
-101 5 -132 35 -26 26 -32 41 -35 85 -4 59 8 91 48 121 54 39 173 18 186 -34
8 -28 23 -23 23 7 0 40 -17 62 -58 74 -51 14 -139 12 -185 -5z"/>
<path d="M7522 6438 c3 -561 4 -605 21 -636 27 -50 67 -62 207 -62 113 0 120
1 120 20 0 17 -7 20 -40 20 -53 0 -95 23 -117 63 -17 29 -18 80 -21 615 l-3
582 -85 0 -85 0 3 -602z"/>
<path d="M21515 6827 c-125 -47 -221 -138 -284 -272 -65 -134 -83 -262 -57
-403 62 -347 379 -525 711 -401 92 34 238 190 221 235 -8 22 -20 17 -40 -16
-28 -49 -114 -128 -165 -155 -152 -77 -343 -46 -452 73 -91 98 -135 249 -125
432 11 229 79 365 218 437 71 36 217 45 299 18 96 -32 185 -144 204 -256 4
-24 12 -39 21 -39 17 0 20 134 4 192 -30 106 -190 178 -395 177 -78 0 -113 -5
-160 -22z"/>
<path d="M12430 6806 c0 -11 9 -16 30 -16 17 0 43 -6 59 -14 55 -29 55 -29 59
-553 l3 -483 70 0 69 0 0 250 0 250 58 0 57 0 110 -186 c119 -202 165 -261
228 -298 73 -42 207 -44 215 -3 2 10 -3 17 -13 17 -31 0 -93 40 -132 84 -22
25 -86 122 -143 217 -102 172 -108 188 -62 189 28 0 131 61 160 94 33 38 62
118 62 171 0 94 -62 195 -144 237 -87 45 -129 50 -413 55 -246 5 -273 4 -273
-11z m528 -72 c67 -33 117 -92 132 -155 28 -116 -32 -217 -160 -269 -37 -16
-137 -19 -182 -7 l-28 7 0 219 c0 252 -11 228 111 230 62 1 84 -3 127 -25z"/>
<path d="M16688 6701 c-36 -47 -38 -53 -38 -125 l0 -76 -55 0 c-54 0 -55 0
-55 -30 0 -30 1 -30 54 -30 l55 0 3 -292 3 -293 27 -46 c46 -77 134 -104 248
-75 74 19 110 40 110 62 0 12 -6 15 -22 9 -44 -14 -145 -17 -167 -6 -11 6 -29
26 -38 44 -15 28 -18 69 -21 315 l-4 282 101 0 101 0 0 30 0 29 -97 3 -98 3
-3 123 -3 122 -32 0 c-26 -1 -39 -9 -69 -49z"/>
<path d="M20218 6701 c-36 -47 -38 -53 -38 -125 l0 -76 -55 0 c-54 0 -55 0
-55 -30 0 -30 1 -30 54 -30 l55 0 3 -292 3 -293 27 -46 c46 -77 134 -104 248
-75 74 19 110 40 110 62 0 12 -6 15 -22 9 -44 -14 -145 -17 -167 -6 -11 6 -29
26 -38 44 -15 28 -18 69 -21 315 l-4 282 101 0 101 0 0 30 0 29 -97 3 -98 3
-3 123 -3 122 -32 0 c-26 -1 -39 -9 -69 -49z"/>
<path d="M8356 6655 c-32 -13 -68 -33 -80 -44 -28 -26 -38 -26 -54 0 -24 37
-72 49 -207 49 -118 0 -125 -1 -125 -20 0 -17 7 -20 45 -20 57 0 87 -14 111
-53 18 -30 19 -59 22 -429 l3 -398 90 0 89 0 0 378 0 378 28 26 c54 52 106 71
181 66 88 -5 131 -32 169 -108 l27 -55 3 -342 3 -343 89 0 90 0 0 308 c0 169
-5 336 -10 371 -20 119 -84 206 -177 241 -80 30 -218 28 -297 -5z"/>
<path d="M9320 6669 c-72 -14 -152 -59 -187 -106 -92 -123 -53 -351 71 -420
19 -10 18 -13 -12 -47 -45 -52 -45 -102 3 -154 l34 -38 -43 -22 c-60 -28 -113
-77 -139 -126 -16 -31 -22 -59 -22 -116 0 -65 4 -82 30 -129 52 -94 149 -145
310 -163 109 -12 248 2 332 34 73 27 146 94 170 156 28 72 23 166 -11 236 -56
115 -161 162 -389 176 -160 10 -210 27 -215 73 -5 41 44 57 203 68 196 12 279
46 330 132 73 126 44 293 -63 359 -31 19 -33 23 -16 29 10 4 40 11 67 14 41 6
47 9 47 31 l0 24 -227 -1 c-126 -1 -248 -5 -273 -10z m227 -80 c30 -15 52 -35
71 -67 24 -42 27 -57 27 -137 0 -78 -3 -96 -25 -134 -47 -83 -161 -115 -256
-72 -69 31 -104 100 -104 205 0 109 36 182 105 212 47 20 132 17 182 -7z m-22
-724 c121 -32 175 -92 182 -203 4 -59 1 -74 -24 -122 -24 -47 -37 -59 -87 -85
-53 -27 -69 -30 -146 -30 -73 1 -95 5 -136 26 -73 37 -107 92 -112 179 -6 106
19 162 101 221 34 24 50 29 101 29 34 0 89 -7 121 -15z"/>
<path d="M10230 6665 c-107 -24 -151 -70 -158 -165 l-4 -60 44 0 c41 0 45 2
57 35 17 48 58 95 98 111 18 8 62 14 98 14 80 0 134 -24 164 -74 24 -39 51
-149 51 -212 l0 -41 -127 -6 c-312 -15 -448 -112 -430 -305 8 -99 54 -165 147
-213 38 -20 60 -24 140 -24 108 0 165 17 235 70 l44 34 33 -44 c32 -43 35 -44
87 -45 l53 0 -4 333 c-4 306 -6 337 -26 398 -31 93 -69 141 -139 175 -53 26
-69 29 -178 31 -76 2 -144 -3 -185 -12z m350 -610 l0 -136 -43 -43 c-53 -52
-102 -71 -169 -63 -99 12 -158 79 -158 178 0 125 105 197 288 198 l82 1 0
-135z"/>
<path d="M11088 6661 c-85 -17 -118 -67 -118 -181 0 -62 2 -70 19 -70 13 0 20
10 24 35 8 51 40 90 95 116 41 21 65 24 205 27 95 3 157 1 157 -5 0 -5 -112
-188 -250 -407 -137 -218 -250 -406 -250 -417 0 -18 10 -19 385 -19 l385 0 0
40 0 40 -265 2 -265 3 260 414 c143 227 260 417 260 422 0 11 -587 10 -642 0z"/>
<path d="M24773 6520 c-52 -11 -80 -25 -116 -58 l-28 -26 -22 26 c-31 39 -65
48 -173 48 -77 0 -94 -3 -94 -15 0 -11 11 -15 39 -15 62 0 90 -31 101 -110 5
-36 10 -262 10 -502 l0 -438 70 0 70 0 0 170 c0 94 3 170 8 170 4 -1 32 -9 62
-20 80 -28 190 -27 255 4 125 58 185 178 185 371 0 191 -58 318 -172 376 -44
23 -136 32 -195 19z m93 -69 c79 -36 113 -115 121 -278 9 -176 -18 -277 -91
-341 -57 -50 -128 -54 -220 -13 l-46 20 0 268 0 269 34 33 c35 34 93 60 136
60 14 0 43 -8 66 -18z"/>
<path d="M26880 6518 c0 -9 22 -21 55 -32 38 -12 64 -28 87 -55 28 -34 123
-253 299 -691 8 -20 -45 -155 -78 -198 -33 -44 -77 -70 -130 -78 -33 -5 -43
-11 -43 -25 0 -16 8 -19 55 -19 89 0 151 34 197 108 11 18 98 246 193 505
l173 472 -35 3 c-19 2 -37 1 -40 -1 -2 -3 -47 -123 -99 -268 -112 -308 -109
-303 -122 -269 -54 139 -188 452 -205 477 -39 57 -89 77 -204 81 -85 4 -103 2
-103 -10z"/>
<path d="M13654 6497 c-95 -46 -160 -136 -185 -257 -17 -81 -6 -232 21 -305
30 -79 114 -164 184 -188 63 -22 187 -22 249 -1 51 17 123 76 150 123 17 28
17 32 2 37 -11 5 -26 -5 -46 -29 -90 -109 -276 -116 -355 -11 -31 40 -64 141
-64 195 l0 39 251 0 252 0 -6 88 c-12 162 -53 245 -149 297 -47 26 -65 30
-153 33 -89 3 -106 0 -151 -21z m207 -60 c19 -12 44 -41 56 -63 23 -41 49
-174 39 -200 -4 -11 -37 -14 -177 -14 l-172 0 5 63 c7 81 41 158 89 202 49 44
107 48 160 12z"/>
<path d="M14503 6505 c-106 -32 -172 -96 -215 -205 -32 -81 -32 -270 1 -353
74 -189 260 -268 466 -200 52 17 155 108 155 137 0 30 -23 27 -51 -7 -87 -105
-280 -119 -365 -25 -128 139 -105 481 37 575 48 32 136 42 194 23 72 -24 135
-100 135 -165 0 -16 6 -25 16 -25 14 0 16 12 13 86 -4 84 -5 86 -40 119 -24
22 -54 37 -88 44 -69 15 -206 13 -258 -4z"/>
<path d="M15344 6506 c-17 -7 -47 -28 -67 -46 l-37 -32 -11 25 c-17 37 -54 50
-161 55 -85 4 -98 2 -98 -12 0 -10 9 -16 25 -16 40 0 73 -21 90 -55 13 -28 15
-85 15 -359 l0 -326 75 0 75 0 0 308 c0 307 0 309 23 329 63 59 167 72 230 29
l35 -24 32 26 32 27 -35 40 c-34 39 -35 40 -113 42 -52 2 -90 -2 -110 -11z"/>
<path d="M17425 6496 c-27 -13 -59 -30 -69 -39 -18 -13 -21 -12 -40 10 -26 30
-78 42 -183 43 -67 0 -83 -3 -83 -15 0 -10 10 -15 30 -15 43 0 79 -20 98 -54
14 -27 17 -77 20 -358 l4 -328 69 0 69 0 0 318 1 317 45 34 c35 27 58 35 100
39 71 6 98 -9 126 -67 22 -44 23 -58 26 -343 l4 -298 69 0 69 0 0 308 0 308
33 31 c46 44 89 63 142 63 38 0 52 -5 75 -28 45 -46 50 -83 50 -394 l0 -288
70 0 70 0 0 293 c0 326 -6 369 -61 432 -39 44 -87 58 -180 53 -83 -4 -146 -29
-196 -78 l-31 -30 -20 34 c-31 53 -86 76 -179 76 -61 0 -89 -5 -128 -24z"/>
<path d="M18614 6497 c-95 -46 -160 -136 -185 -257 -17 -81 -6 -232 21 -305
30 -79 114 -164 184 -188 63 -22 187 -22 249 -1 51 17 123 76 150 123 17 28
17 32 2 37 -11 5 -26 -5 -46 -29 -90 -109 -276 -116 -355 -11 -31 40 -64 141
-64 195 l0 39 251 0 252 0 -6 88 c-12 162 -53 245 -149 297 -47 26 -65 30
-153 33 -89 3 -106 0 -151 -21z m207 -60 c19 -12 44 -41 56 -63 23 -41 49
-174 39 -200 -4 -11 -37 -14 -177 -14 l-172 0 5 63 c7 81 41 158 89 202 49 44
107 48 160 12z"/>
<path d="M19515 6496 c-27 -13 -59 -30 -69 -39 -18 -13 -21 -12 -40 10 -26 30
-78 42 -183 43 -67 0 -83 -3 -83 -15 0 -10 10 -15 30 -15 43 0 79 -20 98 -54
14 -27 17 -77 20 -358 l4 -328 69 0 69 0 0 318 1 317 46 35 c39 30 55 35 112
38 57 3 71 0 101 -20 19 -13 46 -44 60 -68 25 -45 25 -47 28 -332 l3 -288 70
0 69 0 0 270 c0 294 -6 344 -51 415 -43 67 -106 95 -219 95 -69 0 -94 -5 -135
-24z"/>
<path d="M22503 6506 c-163 -53 -252 -207 -241 -415 7 -123 35 -190 112 -267
91 -91 202 -121 326 -90 184 47 280 198 268 422 -6 112 -34 186 -94 253 -66
73 -136 104 -243 108 -53 2 -102 -2 -128 -11z m170 -57 c45 -23 98 -84 118
-139 30 -77 37 -233 15 -320 -34 -131 -99 -200 -190 -200 -131 0 -214 148
-204 365 6 141 50 235 133 286 34 21 95 25 128 8z"/>
<path d="M23425 6496 c-27 -13 -59 -30 -69 -39 -18 -13 -21 -12 -40 10 -26 30
-78 42 -183 43 -67 0 -83 -3 -83 -15 0 -10 10 -15 30 -15 43 0 79 -20 98 -54
14 -27 17 -77 20 -358 l4 -328 69 0 69 0 0 318 1 317 45 34 c35 27 58 35 100
39 71 6 98 -9 126 -67 22 -44 23 -58 26 -343 l4 -298 69 0 69 0 0 308 0 308
33 31 c46 44 89 63 142 63 38 0 52 -5 75 -28 45 -46 50 -83 50 -394 l0 -288
70 0 70 0 0 293 c0 326 -6 369 -61 432 -39 44 -87 58 -180 53 -83 -4 -146 -29
-196 -78 l-31 -30 -20 34 c-31 53 -86 76 -179 76 -61 0 -89 -5 -128 -24z"/>
<path d="M25450 6505 c-79 -22 -112 -59 -118 -129 l-4 -56 33 0 c31 0 36 5 56
50 27 61 76 90 155 90 110 0 167 -66 176 -205 l4 -72 -105 -7 c-184 -12 -289
-53 -335 -131 -33 -57 -27 -166 12 -225 73 -111 284 -129 395 -34 l40 34 28
-40 c25 -36 32 -40 71 -40 l44 0 -4 278 c-4 222 -8 287 -21 328 -24 72 -56
115 -107 144 -39 21 -59 25 -155 27 -75 2 -128 -2 -165 -12z m300 -503 l0
-118 -32 -31 c-46 -43 -70 -53 -125 -53 -87 0 -153 63 -153 148 0 107 89 170
243 171 l67 1 0 -118z"/>
<path d="M26385 6496 c-27 -13 -59 -30 -69 -39 -18 -13 -21 -12 -40 10 -26 30
-78 42 -183 43 -67 0 -83 -3 -83 -15 0 -10 10 -15 30 -15 43 0 79 -20 98 -54
14 -27 17 -77 20 -358 l4 -328 69 0 69 0 0 318 1 317 46 35 c39 30 55 35 112
38 57 3 71 0 101 -20 19 -13 46 -44 60 -68 25 -45 25 -47 28 -332 l3 -288 70
0 69 0 0 270 c0 294 -6 344 -51 415 -43 67 -106 95 -219 95 -69 0 -94 -5 -135
-24z"/>
<path d="M15610 6492 c0 -4 20 -13 45 -20 77 -20 79 -29 85 -312 5 -227 7
-249 29 -297 27 -62 51 -85 116 -114 97 -44 236 -28 322 37 l31 23 27 -34 c22
-30 32 -35 66 -35 l39 0 0 380 0 380 -70 0 -70 0 -2 -317 -3 -316 -48 -33
c-89 -62 -191 -50 -250 28 -39 51 -46 104 -47 336 0 226 -7 269 -48 291 -24
13 -222 15 -222 3z"/>
</g>
</svg>
